<?xml version="1.0" encoding="utf-8"?>
<!-- Generator: Adobe Illustrator 24.0.2, SVG Export Plug-In . SVG Version: 6.00 Build 0)  -->
<svg version="1.1" id="Layer_1" xmlns="http://www.w3.org/2000/svg" xmlns:xlink="http://www.w3.org/1999/xlink" x="0px" y="0px"
	 viewBox="0 0 132.3 132.3" style="enable-background:new 0 0 132.3 132.3;" xml:space="preserve">
<style type="text/css">
	.st0{fill:#C74430;}
	.st1{fill:#FEFDFD;}
	.st2{fill:#C63E29;}
</style>
<title>Square Logo</title>
<path class="st0" d="M1.6,66.1c0-8.8,0.3-17.7-0.1-26.5c-0.2-5.7,2.2-8.9,7.2-11c3.5-1.5,6.9-3.4,10.4-5.2
	c8.1-4.2,16.2-8.4,24.3-12.6c5-2.6,10-5.4,15.1-7.9c2-1.1,4.1-2,6.3-2.7c2.2-0.7,4.3,0,6.4,1.1C79,5.5,86.9,9.6,94.8,13.7
	c4.6,2.4,9.1,4.8,13.6,7.1c5.3,2.8,10.7,5.5,16,8.3c1.4,0.6,2.7,1.4,3.9,2.3c1.7,1.5,2.6,3.7,2.4,6c0,19.2-0.1,38.4,0.1,57.6
	c0,4.6-3,6.5-6.4,8.3c-5,2.6-10.1,5.2-15.2,7.8c-8.1,4.1-16.2,8.3-24.2,12.5c-4.8,2.5-9.6,5-14.3,7.5c-2.8,1.6-6.2,1.6-9,0
	c-9.3-4.8-18.6-9.6-27.8-14.4c-6.5-3.4-12.9-6.8-19.3-10.2c-2.9-1.6-5.8-3.2-8.8-4.6s-4.2-3.9-4.2-7C1.6,85.3,1.6,75.7,1.6,66.1z
	 M5.2,66.1c0,9.5,0.1,19.1,0,28.6C5,97.1,6.5,99.3,8.7,100c0.5,0.2,1,0.4,1.5,0.7l20.8,10.8c10,5.2,20.1,10.2,30,15.7
	c3.8,2.1,7.1,2.5,10.5-0.2c0.2-0.2,0.5-0.3,0.7-0.4l31.5-16.3l20.6-10.7c1.7-0.7,2.9-2.4,2.9-4.2V37c0.1-1.7-0.9-3.3-2.4-4.1
	c-4.5-2.4-8.9-4.7-13.4-7c-7.8-4-15.6-8-23.4-12.1c-6.3-3.3-12.6-6.6-18.9-9.9c-1.7-1-3.8-1-5.6-0.1c-1.7,0.8-3.3,1.7-5,2.6
	c-5,2.6-10,5.3-15.1,8C35.3,18.7,27,23,18.8,27.2c-3.4,1.7-6.8,3.5-10.2,5.2c-2.2,1.1-3.4,2.5-3.4,5.2C5.2,47,5.2,56.5,5.2,66.1
	L5.2,66.1z"/>
<path class="st1" d="M5.2,66.1c0-9.5,0.1-19.1,0-28.6c-0.1-2.3,1.3-4.4,3.4-5.2c3.4-1.7,6.8-3.4,10.2-5.2
	c8.3-4.3,16.5-8.5,24.7-12.8c5-2.6,10-5.3,15.1-7.9c1.7-0.9,3.3-1.8,5-2.6c1.8-0.9,3.9-0.9,5.6,0.1c6.3,3.3,12.6,6.7,18.9,9.9
	c7.8,4,15.6,8,23.4,12.1c4.5,2.3,9,4.7,13.4,7c1.5,0.8,2.5,2.4,2.4,4.1v58.4c0,1.9-1.1,3.5-2.9,4.2l-20.6,10.7l-31.6,16.3
	c-0.2,0.1-0.5,0.3-0.7,0.4c-3.5,2.7-6.7,2.3-10.5,0.2c-9.9-5.5-20-10.5-30-15.7l-20.9-10.8c-0.5-0.2-1-0.4-1.5-0.7
	c-2.3-0.8-3.7-2.9-3.5-5.3C5.3,85.2,5.2,75.6,5.2,66.1z M9.8,66.2v27.5c-0.2,1.2,0.5,2.3,1.6,2.7c4.7,2.4,9.4,5,14.2,7.4l23.2,12
	c5.5,2.8,10.9,5.7,16.4,8.5c0.6,0.3,1.3,0.3,1.9,0.1c5.4-2.7,10.8-5.6,16.2-8.4c4.8-2.5,9.7-5.1,14.5-7.6c7.7-4,15.5-8,23.2-11.9
	c1-0.4,1.7-1.5,1.6-2.6c0-18.4,0-36.8,0-55.3c0.1-1.2-0.6-2.3-1.7-2.7c-4.6-2.3-9.1-4.7-13.6-7.1l-23.2-12c-5.7-2.9-11.3-5.9-17-8.8
	c-0.6-0.3-1.3-0.3-1.9-0.1c-6.8,3.4-13.5,6.9-20.2,10.5c-4.8,2.5-9.6,5-14.3,7.5c-6.4,3.3-12.9,6.6-19.4,10c-1,0.4-1.6,1.5-1.5,2.6
	C9.9,47.7,9.9,56.9,9.8,66.2L9.8,66.2z"/>
<path class="st2" d="M9.9,66.2V38.4c-0.1-1.1,0.5-2.2,1.5-2.6c6.5-3.3,12.9-6.6,19.4-10c4.8-2.5,9.6-5,14.3-7.5
	c6.8-3.5,13.5-7,20.3-10.5c0.6-0.3,1.3-0.3,1.9,0c5.7,2.9,11.3,5.8,17,8.8l23.3,12c4.6,2.3,9.1,4.8,13.6,7.1
	c1.1,0.5,1.8,1.6,1.6,2.8c-0.1,18.4-0.1,36.9,0,55.3c0.1,1.1-0.5,2.2-1.6,2.6c-7.8,4-15.5,7.9-23.2,11.9c-4.9,2.5-9.7,5.1-14.5,7.6
	c-5.4,2.8-10.8,5.6-16.2,8.4c-0.6,0.2-1.3,0.2-1.9-0.1c-5.5-2.8-11-5.6-16.4-8.4l-23.2-12c-4.7-2.4-9.4-5-14.2-7.4
	c-1.1-0.4-1.8-1.6-1.7-2.8C9.9,84.5,9.9,75.4,9.9,66.2z M75.5,98.4c-4.3-0.3-4.7-0.4-6.8-3.9c-0.9-1.7-1.3-3.5-1.3-5.4
	c-0.2-7.1,0-14.2-0.1-21.3c-0.2-5.2,0.6-10.4,2.2-15.3c0.9-3.1,2.3-6,4.1-8.7c2.5-3.7,6.1-6.5,10.2-8.1c3.7-1.4,7.7-1.8,11.7-1.2
	c-1.5,0.3-2.6,0.4-3.7,0.6c-4,1.1-7.5,3.3-10.2,6.5c-4.6,5.2-4,14-0.8,18.2c3.4,4.8,8.8,7.7,14.6,7.9c7,0.4,13-1.9,17.1-7.8
	c3.3-4.8,3.3-10.2,1.7-15.7c-1.1-4.4-4-8-8.1-10C100.1,31.1,93.6,31,87,32c-4.2,0.6-8.2,2.4-11.4,5.2c-3,2.4-5.3,5.6-6.7,9.1
	c-0.4,0.7-0.9,1.3-1.4,1.9c-0.2-1.6-0.3-2.9-0.4-4.2c-0.4-4.3-3.1-8.1-6.9-10c-3.1-1.7-6.5-2.7-10-3.1C40,30.1,30,30.6,21.9,38.4
	c-3.1,3-4,7-5.5,10.9h3.2c0.3-1.5,0.7-2.9,1.3-4.3c1.2-2.7,3.9-3.4,5.3-1.4c0.6,1.1,0.8,2.3,0.8,3.5C27,61,27,74.9,27,88.8
	c0,8,4.3,13.2,11.8,15.2c10.2,2.8,20.4,1.7,30.4-1.4C71.7,102,73.9,100.5,75.5,98.4z"/>
<path class="st1" d="M75.5,98.4c-1.6,2.1-3.8,3.6-6.4,4.2c-10,3.1-20.1,4.2-30.4,1.5c-7.5-2-11.8-7.2-11.8-15.2
	C27,75,27,61.1,27,47.2c0.1-1.2-0.2-2.4-0.7-3.5c-1.4-2-4.1-1.3-5.3,1.4c-0.5,1.4-0.9,2.9-1.3,4.3h-3.3c1.5-4,2.3-7.9,5.5-10.9
	c8.1-7.7,18-8.3,28.2-7.4c3.5,0.4,6.9,1.4,10,3.1c3.9,1.9,6.5,5.7,6.9,10c0.2,1.3,0.3,2.6,0.4,4.2c0.5-0.6,1-1.2,1.4-1.9
	c1.4-3.5,3.7-6.7,6.7-9.1c3.2-2.8,7.2-4.6,11.4-5.3c6.6-1,13.2-0.8,19.3,2.2c4,2,7,5.6,8.1,10c1.6,5.5,1.6,10.9-1.7,15.7
	c-4.1,5.9-10.1,8.2-17.1,7.8c-5.8-0.2-11.3-3.1-14.6-7.9c-3.1-4.2-3.8-13,0.8-18.2c2.6-3.1,6.2-5.4,10.2-6.4c1-0.3,2.1-0.4,3.7-0.6
	c-3.9-0.7-7.9-0.3-11.6,1.2c-4.1,1.6-7.7,4.5-10.2,8.1c-1.8,2.7-3.2,5.6-4.1,8.7c-1.6,4.9-2.4,10.1-2.2,15.3
	c0.1,7.1-0.1,14.2,0.1,21.3c0,1.9,0.5,3.8,1.3,5.4C70.8,98,71.2,98.1,75.5,98.4z"/>
</svg>
