<svg id="Layer_1" data-name="Layer 1" xmlns="http://www.w3.org/2000/svg" viewBox="0 0 814.81 275.9"><defs><style>.cls-1{fill:#fefefe;}.cls-2{fill:#c63e29;}.cls-3{fill:#c74430;}.cls-4{fill:#fefdfd;}</style></defs><title>Screen Shot 2021-03-13 at 02.42.11</title><path class="cls-1" d="M702.59,481.83H-112.22V205.93H702.59Zm-290.43-124,.21.22c-.54,2.65-1.06,5.31-1.62,8a4.75,4.75,0,0,0,2.64,5.51c1.7.83,3,.64,3.69-.58s1.4-2.5,2-3.8A84.13,84.13,0,0,1,428.22,351a58.25,58.25,0,0,1,6.28-7.68,27.93,27.93,0,0,1,6.51-4.26c1.91-1,3.08-.34,3.74,1.77a26.84,26.84,0,0,1,.85,3.65,5.26,5.26,0,0,0,4.67,4.6c1.52.2,2.75-.8,2.4-2.28-1-4.21-1.75-8.47-5.09-11.76a9.77,9.77,0,0,0-10.7-2.47,20.64,20.64,0,0,0-8.27,5.41c-1.27,1.28-2.63,2.47-3.94,3.7.54-3.93,1.35-7.62,2.17-11.32a2.45,2.45,0,0,1,.23-.56c1.39-2.76-.74-6.38-3.9-6.68a2.14,2.14,0,0,0-2.6,1.78c-1.13,4.57-2.22,9.14-3.41,13.68-.82,3.09-1.24,6.16-3.35,9A41.89,41.89,0,0,1,394.49,362a34.88,34.88,0,0,1-15.57,2.14c-3.53-.32-5.76-1.92-6.22-4.86a46.32,46.32,0,0,1,0-7.18,15.82,15.82,0,0,0,10.44,1.72,23.38,23.38,0,0,0,13.25-7.6c2.18-2.4,3.48-5,3.25-8.19a7.6,7.6,0,0,0-2.69-5.59c-4.57-3.85-9.61-3.55-14.75-1.75-5.77,2-10,6-13.29,11.07a3.21,3.21,0,0,1-1.46,1.3c-5.31,1.84-10.64,3.6-16,5.39-1.46.49-2.91,1-4.59,1.61.13-1.35.31-2.37.32-3.4a52.2,52.2,0,0,0-.1-8.11c-.71-4.89-4.45-6.72-8.82-4.5a25.24,25.24,0,0,0-3.64,2.68l-2.28,1.73c-3.89-8.59-12.48-10.21-18.68-8.47a23.35,23.35,0,0,0-12.63,8.94c-1.42,1.93-2.63,4-4,6a6.16,6.16,0,0,1-1.39,1.53,35.69,35.69,0,0,1-16,6.62c-2.05.26-4.13.24-6.58.37a14.6,14.6,0,0,0,1.23-1.86c2.29-5.68,3.74-11.5,2.81-17.69a12,12,0,0,0-13.7-10.31c-3.4.58-5.26,3.06-7.34,5.35-.28.3-.76.7-1.08.65-3.64-.64-6.27,1.38-8.8,3.4-3.9,3.1-5.78,7.58-7,12.16-1.71,6.44-1.46,12.85,2,18.89a11.82,11.82,0,0,0,6.78,5.44c5.87,1.91,11.09.24,15.63-3.66,1.82-1.57,3.34-3.47,5.1-5.11.67-.63,1.68-1.43,2.45-1.34a29.35,29.35,0,0,0,18.51-3.44c1.53-.87,3-1.76,4.24-2.46.59,2.18,1.1,4.36,1.75,6.49,1.46,4.85,5,7.26,9.84,7.55a38.5,38.5,0,0,0,6.55-.67l.5.49c-.87.56-1.77,1.06-2.6,1.67-3.35,2.44-6.67,4.93-10,7.38a61.33,61.33,0,0,0-14.21,14.55,32.16,32.16,0,0,0-5.94,14.42c-1.09,8.83,2.49,15,11.28,17.38,8.51,2.34,16.2-.15,22.91-5.19a56.58,56.58,0,0,0,11.35-11.31c3.7-5,6.49-10.68,9.46-16.18a55.77,55.77,0,0,0,3.39-8.17c1.61-4.61,3.16-9.26,4.5-14,.95-3.33,1.51-6.77,2.21-10.17.21-1.05.46-1.84,1.72-2.25,2-.66,3.93-1.74,5.94-2.5,4.31-1.63,8.66-3.17,12.71-4.64,0,2.84-.08,5.53,0,8.21.22,6,4.92,11.21,10.43,12.93,10.54,3.28,20.16.66,29-5.42A92.87,92.87,0,0,0,412.16,357.83Zm142.57-5.74a20.45,20.45,0,0,0,2.46,15.38,12.69,12.69,0,0,0,6.79,5.44,12.87,12.87,0,0,0,9.55-.57,40.37,40.37,0,0,0,13.78-9.74,80.41,80.41,0,0,0,5.4-6,103.29,103.29,0,0,0,6.67-9.36c.66-1.08.48-2.78.36-4.17-.08-.94-.93-1.13-1.71-.46a6.07,6.07,0,0,0-1.29,1.29,55.73,55.73,0,0,1-13.26,14.66,51.65,51.65,0,0,1-10.71,6.6c-2.46,1.09-5.52.88-8.32,1.14a2,2,0,0,1-2.21-2c-.27-2.47-.82-5-.54-7.42a52.21,52.21,0,0,1,2.24-9.17c1.3-4.21,2.8-8.35,4.22-12.52a165.27,165.27,0,0,1,8.47-20.14c2.72-5.5,5-11.23,7.4-16.88a4.68,4.68,0,0,0-2.4-6.44c-1.63-.78-2.9-.47-3.53.9-.94,2.05-1.85,4.11-2.78,6.17C572.55,305,569.68,311,567,317.23c-2.41,5.64-4.63,11.37-6.87,17.09-1,2.55-1.77,5.19-2.76,7.74a7,7,0,0,1-1.64,2.38c-2.75,2.61-5.43,5.31-8.41,7.64a56.37,56.37,0,0,1-8.54,5.44,12.43,12.43,0,0,1-8.64,1.55,5.5,5.5,0,0,1-3.36-2.07,23.45,23.45,0,0,1-2.23-6.36c-.67-3.1-.46-6.43-2.39-9.18-1.61-2.29-3.76-3.64-6.67-3.34a11.06,11.06,0,0,0-6.22,2.68c-1,.82-2,1.52-3.3,2.45a18.66,18.66,0,0,0,.09-2c-.22-3-.09-6-.82-8.86a6.15,6.15,0,0,0-9.2-4,35.11,35.11,0,0,0-7.42,5.81,87.31,87.31,0,0,0-5.71,6.82,11,11,0,0,1-1.62,1.23c.87-2.5,1.65-4.47,2.23-6.49a5.16,5.16,0,0,0-4.29-6.41,1.84,1.84,0,0,0-2.36,1.42c-1.33,4.42-2.75,8.81-4.11,13.22-1.72,5.6-3.41,11.21-5.12,16.83-2.95-1.45-4.78-1.14-6.8,1.06-1,1.08-1.29,3.72-.38,4.9a3.61,3.61,0,0,0,2,1.36,34,34,0,0,0,4.68.06,11.5,11.5,0,0,0,1.18,1.36c1.89,1.78,3.52,1.5,4.92-.68,1.83-2.88,3.72-5.73,5.64-8.56,2.9-4.27,5.73-8.58,8.79-12.72,2.13-2.89,4.54-5.57,6.94-8.24a54.5,54.5,0,0,1,4.25-3.77c-.29,3.58-.43,6.6-.81,9.61-.52,4.13-1.09,8.27-1.87,12.36-.6,3.17,2.1,6,4.41,5.88a2.78,2.78,0,0,0,1.91-.91c.92-1.17,1.56-2.55,2.4-3.79,2.12-3.15,4.1-6.4,6.49-9.33,1.4-1.73,3.47-2.92,5.58-4.62.28,1.48.45,2.29.58,3.1a31.59,31.59,0,0,0,3.73,11.5c3.36,5.63,9.29,7.17,15,5.54a31.93,31.93,0,0,0,12.81-7.45C551,355.66,552.83,353.87,554.73,352.09ZM6.52,357.45q0,14.4,0,28.8c0,3.14,1.13,5.6,4.18,7s5.9,3,8.84,4.59C26,401.26,32.41,404.67,38.87,408c9.26,4.81,18.55,9.57,27.82,14.39a9.09,9.09,0,0,0,9,0c4.78-2.51,9.56-5.05,14.35-7.54q12.14-6.31,24.31-12.59c5-2.6,10.12-5.15,15.15-7.77,3.39-1.76,6.44-3.64,6.41-8.28-.11-19.2-.05-38.39-.05-57.59a7.14,7.14,0,0,0-2.43-6,24.5,24.5,0,0,0-3.94-2.31c-5.34-2.78-10.71-5.52-16-8.3-4.54-2.36-9.06-4.77-13.61-7.12-7.92-4.1-15.88-8.14-23.78-12.3-2.06-1.08-4.18-1.77-6.39-1.12a37.4,37.4,0,0,0-6.26,2.67c-5.05,2.58-10,5.3-15.06,7.93Q36.14,308.46,24,314.73c-3.44,1.77-6.83,3.68-10.38,5.2-4.94,2.13-7.42,5.3-7.17,11C6.81,339.78,6.52,348.62,6.52,357.45Zm197.36-15.6c.17-1,.22-1.7.39-2.36.91-3.61,1.91-7.19,2.74-10.81a4.67,4.67,0,0,0-4.42-5.52,2.31,2.31,0,0,0-2.68,2c-2.5,10.4-5.08,20.78-7.6,31.17-.75,3.11-1.38,6.24-2.06,9.36s.53,5.16,3.67,6.1a1.92,1.92,0,0,0,2.62-1c1.78-3.39,3.64-6.73,5.34-10.16a63,63,0,0,1,9.64-14.6,52.76,52.76,0,0,1,5.68-5.41,14.08,14.08,0,0,1,3.9-1.88,1.86,1.86,0,0,1,2.77,1.3c.42,1.47.84,2.94,1.13,4.43a6.3,6.3,0,0,0,4.94,4.61c1.84.14,2.66-.62,2.43-2.43a23.57,23.57,0,0,0-4.7-11.11,8.91,8.91,0,0,0-5.73-3.46c-4-.67-7.42.72-10.45,3.09C209,337.2,206.63,339.44,203.88,341.85ZM158,291.07l-.5.51V423.49c2.23.46,1.59-1.13,1.59-2q0-64,0-128.07c0-.35.12-.77,0-1A8.62,8.62,0,0,0,158,291.07Z" transform="translate(112.22 -205.93)"/><path class="cls-2" d="M312.13,366.83a38.5,38.5,0,0,1-6.55.67c-4.88-.29-8.38-2.7-9.84-7.55-.65-2.13-1.16-4.31-1.75-6.49-1.2.7-2.71,1.59-4.24,2.46a29.35,29.35,0,0,1-18.51,3.44c-.77-.09-1.78.71-2.45,1.34-1.76,1.64-3.28,3.54-5.1,5.11-4.54,3.9-9.76,5.57-15.63,3.66a11.82,11.82,0,0,1-6.78-5.44c-3.48-6-3.73-12.45-2-18.89,1.22-4.58,3.1-9.06,7-12.16,2.53-2,5.16-4,8.8-3.4.32.05.8-.35,1.08-.65,2.08-2.29,3.94-4.77,7.34-5.35a12,12,0,0,1,13.7,10.31c.93,6.19-.52,12-2.81,17.69a14.6,14.6,0,0,1-1.23,1.86c2.45-.13,4.53-.11,6.58-.37a35.69,35.69,0,0,0,16-6.62,6.16,6.16,0,0,0,1.39-1.53c1.34-2,2.55-4.08,4-6A23.35,23.35,0,0,1,313.68,330c6.2-1.74,14.79-.12,18.68,8.47l2.28-1.73a25.24,25.24,0,0,1,3.64-2.68c4.37-2.22,8.11-.39,8.82,4.5a52.2,52.2,0,0,1,.1,8.11c0,1-.19,2.05-.32,3.4,1.68-.59,3.13-1.12,4.59-1.61,5.32-1.79,10.65-3.55,16-5.39a3.21,3.21,0,0,0,1.46-1.3c3.3-5.06,7.52-9,13.29-11.07,5.14-1.8,10.18-2.1,14.75,1.75a7.6,7.6,0,0,1,2.69,5.59c.23,3.2-1.07,5.79-3.25,8.19a23.38,23.38,0,0,1-13.25,7.6,15.82,15.82,0,0,1-10.44-1.72,46.32,46.32,0,0,0,0,7.18c.46,2.94,2.69,4.54,6.22,4.86A34.88,34.88,0,0,0,394.49,362a41.89,41.89,0,0,0,19.32-14.41c2.11-2.81,2.53-5.88,3.35-9,1.19-4.54,2.28-9.11,3.41-13.68a2.14,2.14,0,0,1,2.6-1.78c3.16.3,5.29,3.92,3.9,6.68a2.45,2.45,0,0,0-.23.56c-.82,3.7-1.63,7.39-2.17,11.32,1.31-1.23,2.67-2.42,3.94-3.7a20.64,20.64,0,0,1,8.27-5.41,9.77,9.77,0,0,1,10.7,2.47c3.34,3.29,4.12,7.55,5.09,11.76.35,1.48-.88,2.48-2.4,2.28a5.26,5.26,0,0,1-4.67-4.6,26.84,26.84,0,0,0-.85-3.65c-.66-2.11-1.83-2.78-3.74-1.77a27.93,27.93,0,0,0-6.51,4.26,58.25,58.25,0,0,0-6.28,7.68,84.13,84.13,0,0,0-9.17,16.12c-.57,1.3-1.28,2.55-2,3.8s-2,1.41-3.69.58a4.75,4.75,0,0,1-2.64-5.51c.56-2.65,1.08-5.31,1.62-8l.09-.51-.3.29a92.87,92.87,0,0,1-7.4,6.24c-8.82,6.08-18.44,8.7-29,5.42-5.51-1.72-10.21-6.93-10.43-12.93-.1-2.68,0-5.37,0-8.21-4.05,1.47-8.4,3-12.71,4.64-2,.76-3.9,1.84-5.94,2.5-1.26.41-1.51,1.2-1.72,2.25-.7,3.4-1.26,6.84-2.21,10.17-1.34,4.7-2.89,9.35-4.5,14a55.77,55.77,0,0,1-3.39,8.17c-3,5.5-5.76,11.18-9.46,16.18a56.58,56.58,0,0,1-11.35,11.31c-6.71,5-14.4,7.53-22.91,5.19-8.79-2.43-12.37-8.55-11.28-17.38a32.16,32.16,0,0,1,5.94-14.42A61.33,61.33,0,0,1,300,376.37c3.35-2.45,6.67-4.94,10-7.38.83-.61,1.73-1.11,2.6-1.67l.4-.56Zm24-6c-.13,0-.29-.12-.38-.07a149,149,0,0,0-22.34,13.49c-3.2,2.41-6.27,5-9.31,7.6-5,4.33-9.58,9.11-12.7,15.07a5.68,5.68,0,0,1-.4.73A23.76,23.76,0,0,0,286.88,410c-.36,4.68,1.42,6.49,6.07,6.78,8.2.53,14.65-3.2,20.09-8.74a55,55,0,0,0,8.27-10.51c3.38-5.81,6.17-12,9.05-18.06a51.94,51.94,0,0,0,2.53-7.26c1.14-3.8,2.17-7.63,3.24-11.45l.23-.17-.15-.07Zm-34.55-3.53c-.12,3.24,1.42,4.58,4.55,3.55,2.25-.75,4.7-1.59,6.44-3.11,4.88-4.25,9.44-8.87,14.08-13.38a2.18,2.18,0,0,0,.52-1.58,14.27,14.27,0,0,0-.69-2.6,5.34,5.34,0,0,0-4.65-4.11A10.18,10.18,0,0,0,314,338a46.12,46.12,0,0,0-6,5.4C304.4,347.27,301.81,351.74,301.59,357.26Zm-39-1.35c-6.24-4.63-9.28-10.56-9.08-18.26a12.59,12.59,0,0,0-3,2.71,40.71,40.71,0,0,0-2.16,4c-2.63,4.71-3.17,9.84-2.65,15,.4,4,2.31,5.14,6.21,4.13C256.37,362.41,259.28,359.11,262.6,355.91Zm3.44-4.39c1.39-4.51,2.81-8.46,3.77-12.52a24.65,24.65,0,0,0,.25-6.82c-.11-2.06-1.73-2.84-3.55-1.89a9.73,9.73,0,0,0-2.39,1.58c-4.45,4.37-4.7,13.07-.53,17.69A21.61,21.61,0,0,0,266,351.52Zm74.14-8.46-.66-.25L319.26,363a19.52,19.52,0,0,0,2.25-.83q8-4,15.88-8.08c.44-.23,1-.62,1.11-1C339.12,349.73,339.64,346.39,340.18,343.06Zm35,3.82c5.56,2.91,17.1-4.4,17-10.77C386.29,335,378.67,341,375.14,346.88Z" transform="translate(112.22 -205.93)"/><path class="cls-2" d="M554.73,352.09c-1.9,1.78-3.77,3.57-5.68,5.33a31.93,31.93,0,0,1-12.81,7.45c-5.66,1.63-11.59.09-15-5.54a31.59,31.59,0,0,1-3.73-11.5c-.13-.81-.3-1.62-.58-3.1-2.11,1.7-4.18,2.89-5.58,4.62-2.39,2.93-4.37,6.18-6.49,9.33-.84,1.24-1.48,2.62-2.4,3.79a2.78,2.78,0,0,1-1.91.91c-2.31.08-5-2.71-4.41-5.88.78-4.09,1.35-8.23,1.87-12.36.38-3,.52-6,.81-9.61a54.5,54.5,0,0,0-4.25,3.77c-2.4,2.67-4.81,5.35-6.94,8.24-3.06,4.14-5.89,8.45-8.79,12.72-1.92,2.83-3.81,5.68-5.64,8.56-1.4,2.18-3,2.46-4.92.68a11.5,11.5,0,0,1-1.18-1.36,34,34,0,0,1-4.68-.06,3.61,3.61,0,0,1-2-1.36c-.91-1.18-.61-3.82.38-4.9,2-2.2,3.85-2.51,6.8-1.06,1.71-5.62,3.4-11.23,5.12-16.83,1.36-4.41,2.78-8.8,4.11-13.22a1.84,1.84,0,0,1,2.36-1.42,5.16,5.16,0,0,1,4.29,6.41c-.58,2-1.36,4-2.23,6.49a11,11,0,0,0,1.62-1.23,87.31,87.31,0,0,1,5.71-6.82,35.11,35.11,0,0,1,7.42-5.81,6.15,6.15,0,0,1,9.2,4c.73,2.84.6,5.9.82,8.86a18.66,18.66,0,0,1-.09,2c1.27-.93,2.34-1.63,3.3-2.45a11.06,11.06,0,0,1,6.22-2.68c2.91-.3,5.06,1.05,6.67,3.34,1.93,2.75,1.72,6.08,2.39,9.18a23.45,23.45,0,0,0,2.23,6.36,5.5,5.5,0,0,0,3.36,2.07,12.43,12.43,0,0,0,8.64-1.55,56.37,56.37,0,0,0,8.54-5.44c3-2.33,5.66-5,8.41-7.64a7,7,0,0,0,1.64-2.38c1-2.55,1.77-5.19,2.76-7.74,2.24-5.72,4.46-11.45,6.87-17.09,2.65-6.19,5.52-12.28,8.29-18.42.93-2.06,1.84-4.12,2.78-6.17.63-1.37,1.9-1.68,3.53-.9a4.68,4.68,0,0,1,2.4,6.44c-2.43,5.65-4.68,11.38-7.4,16.88a165.27,165.27,0,0,0-8.47,20.14c-1.42,4.17-2.92,8.31-4.22,12.52a52.21,52.21,0,0,0-2.24,9.17c-.28,2.42.27,4.95.54,7.42a2,2,0,0,0,2.21,2c2.8-.26,5.86-.05,8.32-1.14a51.65,51.65,0,0,0,10.71-6.6,55.73,55.73,0,0,0,13.26-14.66,6.07,6.07,0,0,1,1.29-1.29c.78-.67,1.63-.48,1.71.46.12,1.39.3,3.09-.36,4.17a103.29,103.29,0,0,1-6.67,9.36,80.41,80.41,0,0,1-5.4,6,40.37,40.37,0,0,1-13.78,9.74,12.87,12.87,0,0,1-9.55.57,12.69,12.69,0,0,1-6.79-5.44A20.45,20.45,0,0,1,554.73,352.09Zm-48.63-8.66-.09-.13s-.1.08-.1.12,0,.09.08.13Z" transform="translate(112.22 -205.93)"/><path class="cls-3" d="M6.52,357.45c0-8.83.29-17.67-.11-26.49-.25-5.73,2.23-8.9,7.17-11,3.55-1.52,6.94-3.43,10.38-5.2q12.18-6.28,24.33-12.6c5-2.63,10-5.35,15.06-7.93a37.4,37.4,0,0,1,6.26-2.67c2.21-.65,4.33,0,6.39,1.12,7.9,4.16,15.86,8.2,23.78,12.3,4.55,2.35,9.07,4.76,13.61,7.12,5.34,2.78,10.71,5.52,16,8.3a24.5,24.5,0,0,1,3.94,2.31,7.14,7.14,0,0,1,2.43,6c0,19.2-.06,38.39.05,57.59,0,4.64-3,6.52-6.41,8.28-5,2.62-10.11,5.17-15.15,7.77Q102.14,408.55,90,414.87c-4.79,2.49-9.57,5-14.35,7.54a9.09,9.09,0,0,1-9,0c-9.27-4.82-18.56-9.58-27.82-14.39-6.46-3.36-12.88-6.77-19.32-10.15-2.94-1.55-5.84-3.17-8.84-4.59s-4.18-3.9-4.18-7Q6.5,371.85,6.52,357.45Zm3.62,0c0,9.53.06,19.06,0,28.58a5.23,5.23,0,0,0,3.54,5.3c.5.23,1,.43,1.51.68L36,402.77C46,408,56.09,413,66,418.48c3.82,2.13,7.06,2.5,10.54-.16a5.6,5.6,0,0,1,.72-.41l31.54-16.28,20.63-10.7a4.53,4.53,0,0,0,2.85-4.23q0-29.22,0-58.43a4.31,4.31,0,0,0-2.43-4.07q-6.7-3.54-13.43-7c-7.81-4-15.63-8-23.43-12.08-6.33-3.28-12.62-6.62-18.94-9.93a5.84,5.84,0,0,0-5.59-.05c-1.67.84-3.31,1.74-5,2.61-5,2.65-10,5.32-15.07,7.95q-12.33,6.44-24.69,12.81-5.07,2.61-10.19,5.15c-2.18,1.07-3.43,2.55-3.4,5.18C10.2,338.35,10.14,347.88,10.14,357.41Z" transform="translate(112.22 -205.93)"/><path class="cls-2" d="M203.88,341.85c2.75-2.41,5.08-4.65,7.61-6.63,3-2.37,6.42-3.76,10.45-3.09a8.91,8.91,0,0,1,5.73,3.46,23.57,23.57,0,0,1,4.7,11.11c.23,1.81-.59,2.57-2.43,2.43a6.3,6.3,0,0,1-4.94-4.61c-.29-1.49-.71-3-1.13-4.43a1.86,1.86,0,0,0-2.77-1.3,14.08,14.08,0,0,0-3.9,1.88,52.76,52.76,0,0,0-5.68,5.41,63,63,0,0,0-9.64,14.6c-1.7,3.43-3.56,6.77-5.34,10.16a1.92,1.92,0,0,1-2.62,1c-3.14-.94-4.36-2.9-3.67-6.1s1.31-6.25,2.06-9.36c2.52-10.39,5.1-20.77,7.6-31.17a2.31,2.31,0,0,1,2.68-2,4.67,4.67,0,0,1,4.42,5.52c-.83,3.62-1.83,7.2-2.74,10.81C204.1,340.15,204.05,340.84,203.88,341.85Z" transform="translate(112.22 -205.93)"/><path class="cls-3" d="M158,291.07a8.62,8.62,0,0,1,1.08,1.28c.15.26,0,.68,0,1q0,64,0,128.07c0,.91.64,2.5-1.59,2V291.58Z" transform="translate(112.22 -205.93)"/><path class="cls-4" d="M336.13,360.78c-1.07,3.82-2.1,7.65-3.24,11.45a51.94,51.94,0,0,1-2.53,7.26c-2.88,6.09-5.67,12.25-9.05,18.06A55,55,0,0,1,313,408.06c-5.44,5.54-11.89,9.27-20.09,8.74-4.65-.29-6.43-2.1-6.07-6.78A23.76,23.76,0,0,1,291,397.61a5.68,5.68,0,0,0,.4-.73c3.12-6,7.66-10.74,12.7-15.07,3-2.61,6.11-5.19,9.31-7.6a149,149,0,0,1,22.34-13.49c.09-.05.25,0,.38.07Z" transform="translate(112.22 -205.93)"/><path class="cls-4" d="M301.59,357.26c.22-5.52,2.81-10,6.44-13.9a46.12,46.12,0,0,1,6-5.4,10.18,10.18,0,0,1,7.86-1.93,5.34,5.34,0,0,1,4.65,4.11,14.27,14.27,0,0,1,.69,2.6,2.18,2.18,0,0,1-.52,1.58c-4.64,4.51-9.2,9.13-14.08,13.38-1.74,1.52-4.19,2.36-6.44,3.11C303,361.84,301.47,360.5,301.59,357.26Z" transform="translate(112.22 -205.93)"/><path class="cls-4" d="M262.6,355.91c-3.32,3.2-6.23,6.5-10.67,7.64-3.9,1-5.81-.12-6.21-4.13-.52-5.2,0-10.33,2.65-15a40.71,40.71,0,0,1,2.16-4,12.59,12.59,0,0,1,3-2.71C253.32,345.35,256.36,351.28,262.6,355.91Z" transform="translate(112.22 -205.93)"/><path class="cls-4" d="M266,351.52a21.61,21.61,0,0,1-2.45-2c-4.17-4.62-3.92-13.32.53-17.69a9.73,9.73,0,0,1,2.39-1.58c1.82-1,3.44-.17,3.55,1.89a24.65,24.65,0,0,1-.25,6.82C268.85,343.06,267.43,347,266,351.52Z" transform="translate(112.22 -205.93)"/><path class="cls-4" d="M340.18,343.06c-.54,3.33-1.06,6.67-1.68,10-.08.4-.67.79-1.11,1q-7.92,4.06-15.88,8.08a19.52,19.52,0,0,1-2.25.83l20.26-20.17Z" transform="translate(112.22 -205.93)"/><path class="cls-4" d="M375.14,346.88c3.53-5.92,11.15-11.88,17-10.77C392.24,342.48,380.7,349.79,375.14,346.88Z" transform="translate(112.22 -205.93)"/><path class="cls-1" d="M312.13,366.83l.9-.07-.4.56Z" transform="translate(112.22 -205.93)"/><path class="cls-1" d="M412.16,357.83l.3-.29-.09.51Z" transform="translate(112.22 -205.93)"/><path class="cls-4" d="M336.14,360.79l.07-.25.15.07-.23.17Z" transform="translate(112.22 -205.93)"/><path class="cls-1" d="M506.1,343.43l-.11.12s-.08-.09-.08-.13.06-.08.1-.12Z" transform="translate(112.22 -205.93)"/><path class="cls-4" d="M10.14,357.41c0-9.53.06-19.06,0-28.59,0-2.63,1.22-4.11,3.4-5.18q5.12-2.53,10.19-5.15,12.36-6.39,24.69-12.81c5-2.63,10-5.3,15.07-7.95,1.65-.87,3.29-1.77,5-2.61a5.84,5.84,0,0,1,5.59.05c6.32,3.31,12.61,6.65,18.94,9.93,7.8,4,15.62,8,23.43,12.08q6.74,3.48,13.43,7a4.31,4.31,0,0,1,2.43,4.07q0,29.22,0,58.43a4.53,4.53,0,0,1-2.85,4.23l-20.63,10.7L77.21,417.91a5.6,5.6,0,0,0-.72.41C73,421,69.77,420.61,66,418.48,56.09,413,46,408,36,402.77L15.15,392c-.49-.25-1-.45-1.51-.68A5.23,5.23,0,0,1,10.1,386C10.2,376.47,10.14,366.94,10.14,357.41Zm4.66.09c0,9.18,0,18.36,0,27.54a2.6,2.6,0,0,0,1.61,2.74c4.74,2.42,9.43,5,14.16,7.4l23.25,12c5.47,2.82,10.93,5.68,16.42,8.45a2.39,2.39,0,0,0,1.87.06c5.43-2.74,10.83-5.55,16.23-8.36,4.84-2.53,9.66-5.12,14.52-7.64q11.6-6,23.25-11.94a2.52,2.52,0,0,0,1.55-2.58q-.06-27.64,0-55.29a2.66,2.66,0,0,0-1.66-2.74c-4.55-2.33-9.06-4.74-13.61-7.09-7.75-4-15.51-8-23.26-12-5.65-2.92-11.28-5.89-16.95-8.77a2.38,2.38,0,0,0-1.87-.05Q60.11,304.4,50,309.69c-4.79,2.49-9.56,5-14.35,7.53q-9.66,5-19.36,9.95a2.47,2.47,0,0,0-1.52,2.58C14.82,339,14.8,348.25,14.8,357.5Z" transform="translate(112.22 -205.93)"/><path class="cls-2" d="M14.8,357.5c0-9.25,0-18.5,0-27.75a2.47,2.47,0,0,1,1.52-2.58q9.7-4.92,19.36-9.95c4.79-2.49,9.56-5,14.35-7.53q10.13-5.26,20.29-10.45a2.38,2.38,0,0,1,1.87.05c5.67,2.88,11.3,5.85,16.95,8.77,7.75,4,15.51,8,23.26,12,4.55,2.35,9.06,4.76,13.61,7.09a2.66,2.66,0,0,1,1.66,2.74q-.09,27.64,0,55.29a2.52,2.52,0,0,1-1.55,2.58q-11.65,5.92-23.25,11.94c-4.86,2.52-9.68,5.11-14.52,7.64-5.4,2.81-10.8,5.62-16.23,8.36a2.39,2.39,0,0,1-1.87-.06c-5.49-2.77-11-5.63-16.42-8.45l-23.25-12c-4.73-2.45-9.42-5-14.16-7.4A2.6,2.6,0,0,1,14.76,385C14.83,375.86,14.8,366.68,14.8,357.5Zm65.66,32.21c-4.26-.32-4.71-.38-6.76-3.91a11.72,11.72,0,0,1-1.33-5.43c-.15-7.09,0-14.19-.09-21.28a44,44,0,0,1,2.2-15.28,31.33,31.33,0,0,1,4.13-8.71A22.5,22.5,0,0,1,88.84,327a21.73,21.73,0,0,1,11.65-1.16c-1.54.26-2.62.36-3.66.64a19.92,19.92,0,0,0-10.16,6.41c-4.6,5.19-4,14-.81,18.22A18.76,18.76,0,0,0,100.5,359c7,.36,13-1.93,17.13-7.8,3.32-4.79,3.29-10.2,1.74-15.7a15.14,15.14,0,0,0-8.08-9.95c-6.19-3.09-12.73-3.19-19.35-2.24a22.32,22.32,0,0,0-11.38,5.22,22.9,22.9,0,0,0-6.7,9.1,10.22,10.22,0,0,1-1.4,1.94c-.15-1.6-.26-2.91-.41-4.21a12.57,12.57,0,0,0-6.94-10,27.15,27.15,0,0,0-10-3.09c-10.2-.87-20.18-.32-28.23,7.42-3.14,3-4,7-5.48,10.92H24.6a32.28,32.28,0,0,1,1.26-4.34c1.17-2.65,3.93-3.38,5.31-1.39a6.63,6.63,0,0,1,.75,3.55c0,13.9.08,27.81,0,41.72,0,8,4.28,13.19,11.81,15.22,10.23,2.75,20.4,1.67,30.37-1.47A11.71,11.71,0,0,0,80.46,389.71Z" transform="translate(112.22 -205.93)"/><path class="cls-4" d="M80.46,389.71a11.71,11.71,0,0,1-6.35,4.21c-10,3.14-20.14,4.22-30.37,1.47-7.53-2-11.85-7.22-11.81-15.22.07-13.91,0-27.82,0-41.72a6.63,6.63,0,0,0-.75-3.55c-1.38-2-4.14-1.26-5.31,1.39a32.28,32.28,0,0,0-1.26,4.34H21.36c1.48-4,2.34-7.9,5.48-10.92,8.05-7.74,18-8.29,28.23-7.42a27.15,27.15,0,0,1,10,3.09,12.57,12.57,0,0,1,6.94,10c.15,1.3.26,2.61.41,4.21a10.22,10.22,0,0,0,1.4-1.94,22.9,22.9,0,0,1,6.7-9.1,22.32,22.32,0,0,1,11.38-5.22c6.62-.95,13.16-.85,19.35,2.24a15.14,15.14,0,0,1,8.08,9.95c1.55,5.5,1.58,10.91-1.74,15.7-4.08,5.87-10.09,8.16-17.13,7.8a18.76,18.76,0,0,1-14.64-7.9c-3.14-4.23-3.79-13,.81-18.22a19.92,19.92,0,0,1,10.16-6.41c1-.28,2.12-.38,3.66-.64A21.73,21.73,0,0,0,88.84,327a22.5,22.5,0,0,0-10.23,8.11,31.33,31.33,0,0,0-4.13,8.71,44,44,0,0,0-2.2,15.28c.12,7.09-.06,14.19.09,21.28a11.72,11.72,0,0,0,1.33,5.43C75.75,389.33,76.2,389.39,80.46,389.71Z" transform="translate(112.22 -205.93)"/></svg>